<svg id="abh_03_05_23_46_Converted_" data-name="abh_03_05_23_46 [Converted]" xmlns="http://www.w3.org/2000/svg" width="53" height="54" viewBox="0 0 53 54">
  <rect id="XMLID_1_" width="53" height="54" fill="none"/>
  <g id="XMLID_2331_" transform="translate(8.504 9.365)">
    <path id="XMLID_1415_" d="M342.209,377.293h-17.3a.5.5,0,0,1-.5-.5V350.616a.5.5,0,0,1,.5-.5h26.176a.5.5,0,0,1,.5.5V366.35a.013.013,0,0,0,.012.013,8.924,8.924,0,0,1,1.855.331.013.013,0,0,0,.017-.013V350.3a2.07,2.07,0,0,0-2.07-2.07H324.59a2.07,2.07,0,0,0-2.07,2.07v26.807a2.07,2.07,0,0,0,2.07,2.07h18.269a.013.013,0,0,0,.012-.019,8.878,8.878,0,0,1-.649-1.855A.013.013,0,0,0,342.209,377.293Z" transform="translate(-322.52 -348.23)"/>
    <path id="XMLID_1844_" d="M505.852,779.43l-5.2-9-4.819,8.347-3.086-4.763-6.491,10.019h16.2A8.2,8.2,0,0,1,505.852,779.43Z" transform="translate(-481.911 -759.217)"/>
    <circle id="XMLID_1168_" cx="2.519" cy="2.519" r="2.519" transform="translate(21.063 4.83)"/>
    <g id="XMLID_2250_" transform="translate(20.87 19.504)">
      <path id="XMLID_1052_" d="M1293.228,1164.6l-2.518-4.589a.276.276,0,0,0-.483,0l-2.518,4.589a.275.275,0,0,0,.241.408h1.307v4.934a.276.276,0,0,0,.276.276h1.872a.276.276,0,0,0,.276-.276V1165h1.307A.275.275,0,0,0,1293.228,1164.6Z" transform="translate(-1282.91 -1157.813)"/>
      <circle id="XMLID_2190_" cx="7.558" cy="7.558" r="7.558" fill="none" stroke="#000" stroke-miterlimit="10" stroke-width="1"/>
    </g>
  </g>
</svg>
