<svg xmlns="http://www.w3.org/2000/svg" xmlns:xlink="http://www.w3.org/1999/xlink" width="43" height="44" viewBox="0 0 43 44">
  <defs>
    <filter id="Ellipse_2642" x="0" y="0" width="43" height="44" filterUnits="userSpaceOnUse">
      <feOffset dy="3" input="SourceAlpha"/>
      <feGaussianBlur stdDeviation="3" result="blur"/>
      <feFlood flood-opacity="0.161"/>
      <feComposite operator="in" in2="blur"/>
      <feComposite in="SourceGraphic"/>
    </filter>
  </defs>
  <g id="Component_9_1" data-name="Component 9 – 1" transform="translate(9 6)">
    <g transform="matrix(1, 0, 0, 1, -9, -6)" filter="url(#Ellipse_2642)">
      <ellipse id="Ellipse_2642-2" data-name="Ellipse 2642" cx="12.5" cy="13" rx="12.5" ry="13" transform="translate(9 6)" fill="#fff"/>
    </g>
    <path id="message-round-svgrepo-com" d="M13.319,14.437a2.363,2.363,0,0,1,.6-1.229,5.823,5.823,0,0,0,2.332-4.582c0-3.369-3.073-6.1-6.863-6.1s-6.863,2.731-6.863,6.1,3.073,6.1,6.863,6.1a7.675,7.675,0,0,0,1.86-.227.2.2,0,0,1,.213.083c.094.142.2.285.308.424a4.69,4.69,0,0,0,.582.611,2.365,2.365,0,0,0,1.313.629l.047,0a.038.038,0,0,0,.031-.06l-.026-.036a2.335,2.335,0,0,1-.427-1.347c0-.01,0-.02,0-.029A2.34,2.34,0,0,1,13.319,14.437Zm1.665-.127a7.328,7.328,0,0,0,2.793-5.684C17.777,4.25,13.848,1,9.389,1S1,4.25,1,8.626s3.93,7.626,8.389,7.626a9.29,9.29,0,0,0,1.352-.1,5.9,5.9,0,0,0,.749.731,3.753,3.753,0,0,0,2.145.889h0a1.563,1.563,0,0,0,1.341-2.483.813.813,0,0,1,.009-.98Z" transform="translate(3.014 3.929)" fill="#c6ccd2" fill-rule="evenodd"/>
  </g>
</svg>
