<svg id="Component_12_1" data-name="Component 12 – 1" xmlns="http://www.w3.org/2000/svg" width="102.633" height="112.23" viewBox="0 0 102.633 112.23">
  <path id="Path_7037" data-name="Path 7037" d="M60.146,12.9A20.618,20.618,0,0,1,70.753,10a25.677,25.677,0,0,1,14.46,4.376l27.446,16.03s10.132,6.469,10.132,16.506V82.825a21.915,21.915,0,0,1-10.607,19.407c-11.606,7.135-30.823,17.457-30.823,17.457s-9.276,7.325-25.02-2.9L31.748,102.756S20.19,97.047,20.19,83.348V47.435s-.809-10.7,12.51-18.456Z" transform="translate(-20.18 -10)" fill="#fd9f00"/>
  <g id="santa-claus-ringing-a-bell-svgrepo-com" transform="translate(15.985 21.477)">
    <g id="Group_18635" data-name="Group 18635" transform="translate(11.262)">
      <path id="Path_23708" data-name="Path 23708" d="M67.531,97.177c-3.343-.1-7.411,2.569-8.586,3.965h11.3S70.871,97.271,67.531,97.177Z" transform="translate(-30.538 -39.283)" fill="#fffdfa"/>
      <path id="Path_23709" data-name="Path 23709" d="M34.718,97.177c-3.343.094-2.719,3.965-2.719,3.965H43.3C42.122,99.747,38.06,97.076,34.718,97.177Z" transform="translate(-19.626 -39.283)" fill="#fffdfa"/>
      <path id="Path_23710" data-name="Path 23710" d="M86.655,50.44c-1.006-1.609-2.614-1.981-4.681-1.238a5.2,5.2,0,0,0-.955.46c.449-.7.572-1.3.2-1.473-.5-.233-1.631.247-2.14,1.354a2.653,2.653,0,0,0,.044,2.38,2.024,2.024,0,0,0,.032,1.209c.509,1.433,3.657,1.609,5.73.87S87.453,51.728,86.655,50.44Z" transform="translate(-38.575 -19.457)" fill="#fffdfa"/>
      <path id="Path_23711" data-name="Path 23711" d="M56.57,49.933a2.028,2.028,0,0,0,1.892,1.432,1.842,1.842,0,0,0,.468-.135c-1.317-.029-1.788-1.86-1.788-3.437s.468-3.41,1.788-3.436a1.741,1.741,0,0,0-.468-.135,1.926,1.926,0,0,0-1.728,1.071H53.046a5.206,5.206,0,0,1-1.1.672,4.333,4.333,0,0,1-.431.2,4.688,4.688,0,0,1-1.432.319,6.476,6.476,0,0,1-.352,1.253c-.013.033-.032.063-.044.091a6.813,6.813,0,0,1-.59,1.167h0a6.14,6.14,0,0,1-5.033,3.177,6.158,6.158,0,0,1-4.976-3.047,7.4,7.4,0,0,1-.63-1.206c-.024-.052-.045-.1-.067-.148a6.127,6.127,0,0,1-.365-1.289,4.854,4.854,0,0,1-1.532-.374,4.992,4.992,0,0,1-.483-.222,4.914,4.914,0,0,1-2.653-4.114l-.534-.31a1.924,1.924,0,0,0-.966-1.792,1.867,1.867,0,0,0-.47-.113c1.127.68.617,2.5-.173,3.871s-2.111,2.719-3.265,2.081c.116.116.178.261.335.35a2.018,2.018,0,0,0,2.348-.293l4.387,1.847L27.978,64.332c0,.8,1.551,1.539,4.024,2.1.355,1.245,1.882,2.338,4.167,3.11,1.692,2.394-1.94,3.858-.883,3.858,4.067,0,6.8,4.581,7.779,4.09.794-.4.954-4.543.988-6.1.038,1.555.195,5.7.986,6.1.974.5,3.713-4.09,7.779-4.09,1.055,0-2.576-1.464-.88-3.858,2.278-.773,3.808-1.86,4.162-3.1,2.491-.565,4.053-1.3,4.053-2.111L54.025,49.613ZM44.051,54.84a1.4,1.4,0,1,1-1.405,1.408A1.4,1.4,0,0,1,44.051,54.84Zm0,4.826a1.4,1.4,0,1,1-1.405,1.407A1.4,1.4,0,0,1,44.051,59.666Zm0,11.1c-.006,0-.11-.032-.185-.06.063,0,.119.006.185.006s.123-.006.186-.006C44.16,70.737,44.057,70.768,44.051,70.768Zm15.5-6.129c-.98,1.08-6.245,2.516-15.491,2.516-9.313,0-14.814-1.338-15.518-2.72a2.7,2.7,0,0,1,.955-2.306c.489-.182,8.088,2.513,14.563,2.513s14.147-2.9,14.59-2.522S59.812,64.353,59.554,64.639Z" transform="translate(-18.009 -15.991)" fill="#fffdfa"/>
      <circle id="Ellipse_2623" data-name="Ellipse 2623" cx="1.184" cy="1.184" r="1.184" transform="translate(21.318 18.453)" fill="#fffdfa"/>
      <path id="Path_23712" data-name="Path 23712" d="M60.147,30.974a1.184,1.184,0,1,1-1.181,1.184A1.186,1.186,0,0,1,60.147,30.974Z" transform="translate(-30.546 -12.521)" fill="#fffdfa"/>
      <path id="Path_23713" data-name="Path 23713" d="M39.425,22.68a4.131,4.131,0,0,0,2.963,7.014,3.556,3.556,0,0,0,.491-.052v.045c0,2.441,2.369,5.688,5.3,5.688s5.3-3.247,5.3-5.688v-.045a4.331,4.331,0,0,0,.49.052,4.133,4.133,0,0,0,2.966-7.014,2.926,2.926,0,0,0,.132-4.758c.11-.018.289-.105.289-.449a2.894,2.894,0,0,1,.032-.325,6.1,6.1,0,0,0-1.231-4.961,5.084,5.084,0,0,0-.785-.711c-1.389-3.439-.076-6.229.047-7.8a2.272,2.272,0,1,0-.487-1.393c0,.08.018.154.025.234a2.373,2.373,0,0,0-1.184-.234c-3.852,0-10.537,3.442-12.459,8.973a5.67,5.67,0,0,0-1.1.93,6.07,6.07,0,0,0-1.228,4.961,2.821,2.821,0,0,1,.032.325.671.671,0,0,0,.036.231.337.337,0,0,0,.267.209,2.918,2.918,0,0,0-1.175,2.326A2.959,2.959,0,0,0,39.425,22.68Zm8.753,5.571a4.125,4.125,0,0,1-3.552-2.763c0-.654,1.59-.788,3.552-.788s3.553.135,3.553.788A4.132,4.132,0,0,1,48.178,28.251Zm6.94-4.816a12.975,12.975,0,0,1-5.442-1.219,2.163,2.163,0,0,1-2.994,0,13.011,13.011,0,0,1-5.446,1.216c-1.8-.289-.911-1.987-1.673-5.558a1.948,1.948,0,0,0,.283-.178c.691-.472,2.787-1.915,8.332-1.915s7.64,1.442,8.335,1.915a1.944,1.944,0,0,0,.283.178C56.029,21.448,56.921,23.143,55.118,23.435Zm-1.873-14.7.562.319-.6.254-.122.633-.431-.489-.637.074.336-.556-.27-.589.629.145.478-.437ZM51.976,3.86l.326.075.245-.226.029.335.289.164-.305.132-.069.323-.22-.25-.33.038.173-.283Zm-.2,1.918.475.11.358-.331.044.485.427.24-.452.195-.1.474-.321-.366-.484.055.251-.418ZM49.347,4.337l.323.074.245-.226.032.331.289.165-.311.132-.066.325-.217-.251-.33.038.173-.286ZM47.462,6.459l1.323.307,1-.917L49.906,7.2l1.181.669L49.833,8.4l-.27,1.329-.889-1.023-1.348.154.7-1.164Zm-2.281.969.477.108.36-.328.042.487.427.24-.454.194L45.94,8.6l-.322-.366-.485.053.251-.418ZM43.9,8.927,44.221,9l.245-.225.032.335.291.163-.31.132-.064.325L44.2,9.48l-.331.039.174-.283Zm-3.254,3.651c1.357-1.527,3.9-2.3,7.534-2.3s6.176.776,7.537,2.3a5.562,5.562,0,0,1,1.08,4.5.472.472,0,0,1-.013.092c-.845-.583-3.013-1.977-8.6-1.977s-7.758,1.395-8.6,1.977c0-.03-.01-.061-.01-.092A5.548,5.548,0,0,1,40.644,12.577Z" transform="translate(-22.124)" fill="#fffdfa"/>
      <path id="Path_23714" data-name="Path 23714" d="M54.073,34.544a1.425,1.425,0,0,0-1.314.872,1.686,1.686,0,0,1,2.639.045A1.421,1.421,0,0,0,54.073,34.544Z" transform="translate(-28.037 -13.964)" fill="#fffdfa"/>
      <path id="Path_23715" data-name="Path 23715" d="M18.879,17.591a3.863,3.863,0,0,0,.355-.168c.032,0,.057,0,.087,0,.46.544,3.21-.5,5.066-.022.914.236.648,1.943.493,2.843l2.226-.784-.8-.19a1.9,1.9,0,0,0-1.28-3.038c-2-.35-3.551.985-5.074.963a4.244,4.244,0,0,0,1.428-1.628c.674-1.242.792-2.477.267-2.761-.462-.25-1.263.312-1.911,1.288-.042-.126-.077-.248-.129-.374-.7-1.666-2.075-2.68-3.066-2.265s-1.225,2.108-.525,3.775a4.526,4.526,0,0,0,1.452,1.929c-1.309-.534-2.551-1.686-3.96-1.467-1.464.229-1.628,2.413-2.242,2.32l.335,1.8c1.376.025,1.418-2.3,2.794-2.468C16.316,17.118,17.673,18.141,18.879,17.591ZM19.906,14.7c.363-.455.768-.69,1.016-.555.335.181.257.966-.172,1.754a2.21,2.21,0,0,1-1.109,1.112A3.123,3.123,0,0,0,19.906,14.7Zm-.672,2.122a1.909,1.909,0,0,1,.222-1.405A1.859,1.859,0,0,1,19.234,16.819Zm-2.269-1.167c-.447-1.062-.3-2.133.335-2.4s1.5.38,1.946,1.439c.025.06.041.121.064.182A2.9,2.9,0,0,0,19,17.037c-.033.017-.055.039-.08.052a.8.8,0,0,1-.232.055.123.123,0,0,0-.015,0C18.069,17.186,17.354,16.578,16.966,15.651Z" transform="translate(-11.262 -4.594)" fill="#fffdfa"/>
      <rect id="Rectangle_148163" data-name="Rectangle 148163" width="3.796" height="6.476" transform="translate(8.663 16.979)" fill="#fffdfa"/>
      <rect id="Rectangle_148164" data-name="Rectangle 148164" width="3.803" height="6.476" transform="translate(3.345 16.979)" fill="#fffdfa"/>
      <rect id="Rectangle_148165" data-name="Rectangle 148165" width="3.797" height="3.037" transform="translate(2.969 13.586)" fill="#fffdfa"/>
      <rect id="Rectangle_148166" data-name="Rectangle 148166" width="3.795" height="3.037" transform="translate(9.046 13.586)" fill="#fffdfa"/>
      <path id="Path_23716" data-name="Path 23716" d="M25.764,44.116a2.69,2.69,0,0,0,1.227-2.042,2.516,2.516,0,0,0-.258-1.348H25.266a3.479,3.479,0,0,0-.013.486,4.972,4.972,0,0,0-.335-.486H18.832a3.181,3.181,0,0,0,.9,2.309c1.423,1.676,4.238,3.1,5.4,2.114A2.082,2.082,0,0,0,25.764,44.116Z" transform="translate(-14.318 -16.464)" fill="#fffdfa"/>
    </g>
  </g>
</svg>
