<svg id="Component_15_1" data-name="Component 15 – 1" xmlns="http://www.w3.org/2000/svg" width="102.633" height="112.23" viewBox="0 0 102.633 112.23">
  <g id="hexagon">
    <g id="Group_3288" data-name="Group 3288" transform="translate(0)">
      <path id="Path_7037" data-name="Path 7037" d="M60.146,12.9A20.618,20.618,0,0,1,70.753,10a25.677,25.677,0,0,1,14.46,4.376l27.446,16.03s10.132,6.469,10.132,16.506V82.825a21.915,21.915,0,0,1-10.607,19.407c-11.606,7.135-30.823,17.457-30.823,17.457s-9.276,7.325-25.02-2.9L31.748,102.756S20.19,97.047,20.19,83.348V47.435s-.809-10.7,12.51-18.456Z" transform="translate(-20.18 -10)" fill="#fd9f00"/>
    </g>
  </g>
  <g id="community-svgrepo-com" transform="translate(21.8 -0.955)">
    <g id="Group_18637" data-name="Group 18637" transform="translate(-0.001 32.855)">
      <g id="Group_18636" data-name="Group 18636" transform="translate(0 0)">
        <circle id="Ellipse_2624" data-name="Ellipse 2624" cx="6.506" cy="6.506" r="6.506" transform="translate(21.248)" fill="#fffdfa"/>
        <path id="Path_23717" data-name="Path 23717" d="M60.588,180.681l-6.063-1.265a4.965,4.965,0,0,0-5.183,2.2,22.315,22.315,0,0,0-3.371-1.387v-3.605a4.969,4.969,0,0,0-4.949-4.959h-6.2a4.967,4.967,0,0,0-4.956,4.959v3.625a21.924,21.924,0,0,0-3.354,1.382,4.967,4.967,0,0,0-5.188-2.212l-6.068,1.265a4.977,4.977,0,0,0-3.835,5.872l1.523,7.275a4.969,4.969,0,0,0,5.862,3.837l1.92-.4a14.034,14.034,0,0,0,3.993,3.837,24.3,24.3,0,0,0,13.2,3.605c7.605,0,14.156-3.058,17.174-7.45l1.951.409a4.969,4.969,0,0,0,5.86-3.837l1.525-7.275A4.981,4.981,0,0,0,60.588,180.681ZM37.916,202.223a21.732,21.732,0,0,1-11.837-3.2A12.472,12.472,0,0,1,23.4,196.7l1.47-.308a4.971,4.971,0,0,0,3.84-5.865l-1.365-6.541a18.679,18.679,0,0,1,2.522-1.124v1.193a4.969,4.969,0,0,0,4.956,4.954h6.2a4.969,4.969,0,0,0,4.949-4.954V182.8a18.859,18.859,0,0,1,2.546,1.114l-1.384,6.616a4.976,4.976,0,0,0,3.842,5.865l1.485.311C49.688,199.985,44.211,202.223,37.916,202.223Z" transform="translate(-10.062 -156.278)" fill="#fffdfa"/>
        <circle id="Ellipse_2625" data-name="Ellipse 2625" cx="6.506" cy="6.506" r="6.506" transform="translate(42.701 8.552)" fill="#fffdfa"/>
        <path id="Path_23718" data-name="Path 23718" d="M7.84,122.864a6.507,6.507,0,1,0-7.7-5.04A6.517,6.517,0,0,0,7.84,122.864Z" transform="translate(0.001 -101.437)" fill="#fffdfa"/>
      </g>
    </g>
  </g>
</svg>
