<svg id="Component_10_1" data-name="Component 10 – 1" xmlns="http://www.w3.org/2000/svg" width="102.633" height="112.23" viewBox="0 0 102.633 112.23">
  <g id="hexagon">
    <g id="Group_3288" data-name="Group 3288" transform="translate(0 0)">
      <g id="Component_9_1" data-name="Component 9 – 1" transform="translate(0 0)">
        <path id="Path_7037" data-name="Path 7037" d="M60.146,12.9A20.618,20.618,0,0,1,70.753,10a25.677,25.677,0,0,1,14.46,4.376l27.446,16.03s10.132,6.469,10.132,16.506V82.825a21.915,21.915,0,0,1-10.607,19.407c-11.606,7.135-30.823,17.457-30.823,17.457s-9.276,7.325-25.02-2.9L31.748,102.756S20.19,97.047,20.19,83.348V47.435s-.809-10.7,12.51-18.456Z" transform="translate(-20.18 -10)" fill="#fd9f00"/>
      </g>
    </g>
  </g>
  <g id="notes-svgrepo-com" transform="translate(32.257 34.871)">
    <path id="Path_23719" data-name="Path 23719" d="M3.343,20.814l.921,3.437c1.075,4.012,1.613,6.019,2.831,7.32a7.117,7.117,0,0,0,3.579,2.066c1.736.4,3.743-.133,7.755-1.208s6.019-1.613,7.32-2.831q.162-.152.314-.313a16.218,16.218,0,0,1-1.8-.267c-1.239-.246-2.71-.641-4.451-1.107l-.19-.051-.044-.012c-1.894-.507-3.476-.932-4.739-1.389a9.978,9.978,0,0,1-3.561-2.032,9.787,9.787,0,0,1-2.841-4.921,9.98,9.98,0,0,1,.021-4.1c.238-1.333.666-2.929,1.179-4.843h0l.951-3.549.033-.125C7.2,7.812,5.4,8.357,4.2,9.48a7.117,7.117,0,0,0-2.066,3.578C1.73,14.8,2.267,16.8,3.343,20.814Z" transform="translate(0 3.812)" fill="#fffdfa"/>
    <path id="Path_23720" data-name="Path 23720" d="M31.607,17.508l-.921,3.437c-1.075,4.013-1.613,6.019-2.831,7.32a7.117,7.117,0,0,1-3.578,2.066,4.941,4.941,0,0,1-.523.093c-1.628.2-3.615-.331-7.232-1.3-4.013-1.075-6.019-1.613-7.32-2.831a7.117,7.117,0,0,1-2.066-3.579c-.4-1.736.133-3.742,1.208-7.755l.921-3.437c.155-.577.3-1.113.434-1.611.81-2.964,1.354-4.6,2.4-5.709a7.117,7.117,0,0,1,3.579-2.066c1.736-.4,3.742.133,7.755,1.208s6.019,1.613,7.32,2.831a7.117,7.117,0,0,1,2.066,3.579C33.22,11.489,32.682,13.5,31.607,17.508Zm-17.4-1.618a1.335,1.335,0,0,1,1.634-.944l8.593,2.3a1.334,1.334,0,1,1-.691,2.578l-8.594-2.3A1.334,1.334,0,0,1,14.211,15.889Zm-1.382,5.155a1.334,1.334,0,0,1,1.634-.944l5.156,1.382a1.335,1.335,0,0,1-.691,2.578l-5.156-1.382A1.334,1.334,0,0,1,12.828,21.045Z" transform="translate(3.897 0)" fill="#fffdfa" fill-rule="evenodd"/>
  </g>
</svg>
