<svg id="Component_14_1" data-name="Component 14 – 1" xmlns="http://www.w3.org/2000/svg" width="102.633" height="112.23" viewBox="0 0 102.633 112.23">
  <g id="Component_13_1" data-name="Component 13 – 1">
    <path id="Path_7037" data-name="Path 7037" d="M60.146,12.9A20.618,20.618,0,0,1,70.753,10a25.677,25.677,0,0,1,14.46,4.376l27.446,16.03s10.132,6.469,10.132,16.506V82.825a21.915,21.915,0,0,1-10.607,19.407c-11.606,7.135-30.823,17.457-30.823,17.457s-9.276,7.325-25.02-2.9L31.748,102.756S20.19,97.047,20.19,83.348V47.435s-.809-10.7,12.51-18.456Z" transform="translate(-20.18 -10)" fill="#fd9f00"/>
  </g>
  <g id="gift_box-box_-heart-love-valentine" transform="translate(-43.375 -44.949)">
    <path id="Path_23707" data-name="Path 23707" d="M113.41,85.909h-7.888a3.522,3.522,0,0,0,3.513-3.484,3.459,3.459,0,0,0-3.465-3.465,3.464,3.464,0,0,0-4.2-3.39,3.549,3.549,0,0,0-2.753,3.508v.7a2.935,2.935,0,0,0-1.972-.769H92.7a2.935,2.935,0,0,0-1.972.769v-.7A3.549,3.549,0,0,0,87.98,75.57a3.464,3.464,0,0,0-4.2,3.39,3.459,3.459,0,0,0-3.465,3.465,3.522,3.522,0,0,0,3.513,3.484H75.944A3.944,3.944,0,0,0,72,89.853v.986a3.944,3.944,0,0,0,3.944,3.944H87.775v1.972H74.958v19.877a3.786,3.786,0,0,0,3.786,3.786h9.031a1.972,1.972,0,0,0,1.972-1.972V86.9h9.859v31.55a1.972,1.972,0,0,0,1.972,1.972h9.031a3.786,3.786,0,0,0,3.786-3.786V96.755H101.578V94.783H113.41a3.944,3.944,0,0,0,3.944-3.944v-.986A3.944,3.944,0,0,0,113.41,85.909Zm-21.691-.986V81.966a.987.987,0,0,1,.986-.986h3.944a.987.987,0,0,1,.986.986v2.958Z" transform="translate(0.015)" fill="#fffdfa"/>
  </g>
</svg>
