<svg xmlns="http://www.w3.org/2000/svg" xmlns:xlink="http://www.w3.org/1999/xlink" width="44" height="44" viewBox="0 0 44 44">
  <defs>
    <filter id="Ellipse_2643" x="0" y="0" width="44" height="44" filterUnits="userSpaceOnUse">
      <feOffset dy="3" input="SourceAlpha"/>
      <feGaussianBlur stdDeviation="3" result="blur"/>
      <feFlood flood-opacity="0.161"/>
      <feComposite operator="in" in2="blur"/>
      <feComposite in="SourceGraphic"/>
    </filter>
  </defs>
  <g id="Component_8_1" data-name="Component 8 – 1" transform="translate(9 6)">
    <g id="Component_7_1" data-name="Component 7 – 1">
      <g transform="matrix(1, 0, 0, 1, -9, -6)" filter="url(#Ellipse_2643)">
        <circle id="Ellipse_2643-2" data-name="Ellipse 2643" cx="13" cy="13" r="13" transform="translate(9 6)" fill="#fff"/>
      </g>
    </g>
    <g id="like-svgrepo-com" transform="translate(4.85 6.268)">
      <path id="Path_23705" data-name="Path 23705" d="M9.158,8V9.4C8.191,9.4,7.4,11.158,7.4,11.158H6A3.161,3.161,0,0,1,9.158,8Z" transform="translate(-3.895 -5.895)" fill="#d90202"/>
      <path id="Path_23706" data-name="Path 23706" d="M14.205,5a4.261,4.261,0,0,0-3.331,1.688A4.261,4.261,0,0,0,7.543,5C5.038,5,3,7.339,3,10.263c0,6.345,7.874,10.175,7.874,10.175s7.874-3.83,7.874-10.175C18.748,7.339,16.71,5,14.205,5ZM10.874,18.891C9.286,18,4.211,14.78,4.211,10.263A3.628,3.628,0,0,1,7.543,6.4,3.1,3.1,0,0,1,9.983,7.64l.445.559h.89l.445-.559A3.1,3.1,0,0,1,14.205,6.4a3.628,3.628,0,0,1,3.331,3.859C17.536,14.78,12.462,18,10.874,18.891Z" transform="translate(-3 -5)" fill="#d90202"/>
    </g>
  </g>
</svg>
