<svg id="Component_17_1" data-name="Component 17 – 1" xmlns="http://www.w3.org/2000/svg" width="65" height="65" viewBox="0 0 65 65">
  <path id="Oval" d="M32.5,0A32.5,32.5,0,1,1,0,32.5,32.5,32.5,0,0,1,32.5,0Z" fill="#fd9f00"/>
  <path id="instagram" d="M6.171,20.936C2.355,20.761.237,18.642.063,14.829.012,13.709,0,13.353,0,10.5S.012,7.292.063,6.171C.237,2.355,2.355.24,6.171.065,7.292.012,7.647,0,10.5,0s3.209.012,4.332.065c3.814.172,5.933,2.3,6.1,6.106C20.987,7.292,21,7.65,21,10.5s-.013,3.209-.064,4.329c-.171,3.817-2.3,5.932-6.1,6.107-1.122.051-1.479.064-4.332.064S7.292,20.987,6.171,20.936Z" transform="translate(22 21.278)" fill="#fff"/>
</svg>
