<svg id="like-svgrepo-com" xmlns="http://www.w3.org/2000/svg" width="20.866" height="20.454" viewBox="0 0 20.866 20.454">
  <path id="Path_23705" data-name="Path 23705" d="M10.184,8V9.859a2.327,2.327,0,0,0-2.324,2.324H6A4.189,4.189,0,0,1,10.184,8Z" transform="translate(-3.211 -5.211)" fill="#585d5e"/>
  <path id="Path_23706" data-name="Path 23706" d="M17.847,5a5.646,5.646,0,0,0-4.414,2.237A5.646,5.646,0,0,0,9.019,5C5.7,5,3,8.1,3,11.973,3,20.38,13.433,25.454,13.433,25.454S23.866,20.38,23.866,11.973C23.866,8.1,21.166,5,17.847,5ZM13.433,23.406c-2.1-1.186-8.828-5.447-8.828-11.433,0-2.82,1.98-5.114,4.414-5.114A4.106,4.106,0,0,1,12.253,8.5l.59.741h1.18l.59-.741a4.106,4.106,0,0,1,3.234-1.638c2.434,0,4.414,2.294,4.414,5.114C22.261,17.959,15.537,22.22,13.433,23.406Z" transform="translate(-3 -5)" fill="#585d5e"/>
</svg>
