<svg id="message-round-svgrepo-com" xmlns="http://www.w3.org/2000/svg" width="22.23" height="22.228" viewBox="0 0 22.23 22.228">
  <path id="message-round-svgrepo-com-2" data-name="message-round-svgrepo-com" d="M17.323,18.8a3.13,3.13,0,0,1,.8-1.628,7.715,7.715,0,0,0,3.09-6.072c0-4.464-4.072-8.083-9.094-8.083S3.021,6.64,3.021,11.1s4.071,8.083,9.094,8.083a10.169,10.169,0,0,0,2.465-.3.262.262,0,0,1,.282.11c.124.188.261.377.408.561a6.214,6.214,0,0,0,.771.809,3.134,3.134,0,0,0,1.74.833l.063,0a.05.05,0,0,0,.041-.08l-.035-.048a3.094,3.094,0,0,1-.566-1.784c0-.013,0-.026,0-.039A3.1,3.1,0,0,1,17.323,18.8Zm2.206-.169a9.709,9.709,0,0,0,3.7-7.531c0-5.8-5.207-10.1-11.115-10.1S1,5.307,1,11.1s5.207,10.1,11.115,10.1a12.309,12.309,0,0,0,1.791-.13,7.819,7.819,0,0,0,.993.969,4.973,4.973,0,0,0,2.842,1.178h0a2.071,2.071,0,0,0,1.777-3.29,1.077,1.077,0,0,1,.012-1.3Z" transform="translate(-1 -1)" fill="#585d5e" fill-rule="evenodd"/>
</svg>
