<svg id="like-svgrepo-com" xmlns="http://www.w3.org/2000/svg" width="39.086" height="36.349" viewBox="0 0 39.086 36.349">
  <path id="Path_23705" data-name="Path 23705" d="M13.837,8v3.3a4.252,4.252,0,0,0-4.354,4.131H6A7.653,7.653,0,0,1,13.837,8Z" transform="translate(-0.775 -3.043)" fill="#585d5e"/>
  <path id="Path_23706" data-name="Path 23706" d="M30.811,5a10.778,10.778,0,0,0-8.268,3.975A10.778,10.778,0,0,0,14.275,5C8.057,5,3,10.507,3,17.392,3,32.331,22.543,41.349,22.543,41.349s19.543-9.018,19.543-23.957C42.086,10.507,37.029,5,30.811,5ZM22.543,37.709C18.6,35.6,6.007,28.029,6.007,17.392c0-5.011,3.709-9.087,8.268-9.087a7.837,7.837,0,0,1,6.058,2.911l1.1,1.317h2.21l1.1-1.317A7.837,7.837,0,0,1,30.811,8.3c4.56,0,8.268,4.076,8.268,9.087C39.08,28.029,26.485,35.6,22.543,37.709Z" transform="translate(-3 -5)" fill="#585d5e"/>
</svg>
