<svg xmlns="http://www.w3.org/2000/svg" width="41.642" height="39.5" viewBox="0 0 41.642 39.5">
  <path id="message-round-svgrepo-com" d="M31.577,32.639a5.456,5.456,0,0,1,1.491-2.894,13.5,13.5,0,0,0,5.789-10.79c0-7.934-7.627-14.365-17.035-14.365S4.786,11.023,4.786,18.956s7.627,14.365,17.035,14.365a20.029,20.029,0,0,0,4.617-.534.5.5,0,0,1,.529.2c.232.334.488.67.765,1a11.317,11.317,0,0,0,1.445,1.438A6.008,6.008,0,0,0,32.435,36.9l.117.008a.088.088,0,0,0,.077-.142l-.065-.086a5.308,5.308,0,0,1-1.06-3.171c0-.023,0-.046,0-.069A5.233,5.233,0,0,1,31.577,32.639Zm4.133-.3a16.957,16.957,0,0,0,6.932-13.384C42.642,8.653,32.888,1,21.821,1S1,8.653,1,18.956s9.753,17.956,20.821,17.956a24.282,24.282,0,0,0,3.355-.232,14.322,14.322,0,0,0,1.86,1.721,9.581,9.581,0,0,0,5.324,2.093h0a3.68,3.68,0,0,0,3.328-5.846,1.835,1.835,0,0,1,.022-2.309Z" transform="translate(-1 -1)" fill="#585d5e" fill-rule="evenodd"/>
</svg>
